HIERARCHY
ROOT Hips
{
	OFFSET 0.000000 0.000000 0.000000
	CHANNELS 6 Xposition Yposition Zposition Zrotation Yrotation Xrotation 
	JOINT LHipJoint
	{
		OFFSET 0.000000 0.000000 0.000000
		CHANNELS 3 Zrotation Yrotation Xrotation
		JOINT LeftUpLeg
		{
			OFFSET 1.363060 -1.794630 0.839290
			CHANNELS 3 Zrotation Yrotation Xrotation
			JOINT LeftLeg
			{
				OFFSET 2.448110 -6.726130 0.000000
				CHANNELS 3 Zrotation Yrotation Xrotation
				JOINT LeftFoot
				{
					OFFSET 2.562200 -7.039590 0.000000
					CHANNELS 3 Zrotation Yrotation Xrotation
					JOINT LeftToeBase
					{
						OFFSET 0.157640 -0.433110 2.322550
						CHANNELS 3 Zrotation Yrotation Xrotation
						End Site
						{
							OFFSET 0.000000 0.000000 0.000000
						}
					}
				}
			}
		}
	}
	JOINT RHipJoint
	{
		OFFSET 0.000000 0.000000 0.000000
		CHANNELS 3 Zrotation Yrotation Xrotation
		JOINT RightUpLeg
		{
			OFFSET -1.305520 -1.794630 0.839290
			CHANNELS 3 Zrotation Yrotation Xrotation
			JOINT RightLeg
			{
				OFFSET -2.542530 -6.985550 0.000000
				CHANNELS 3 Zrotation Yrotation Xrotation
				JOINT RightFoot
				{
					OFFSET -2.568260 -7.056230 0.000000
					CHANNELS 3 Zrotation Yrotation Xrotation
					JOINT RightToeBase
					{
						OFFSET -0.164730 -0.452590 2.363150
						CHANNELS 3 Zrotation Yrotation Xrotation
						End Site
						{
							OFFSET 0.000000 0.000000 0.000000
						}
					}
				}
			}
		}
	}
	JOINT LowerBack
	{
		OFFSET 0.000000 0.000000 0.000000
		CHANNELS 3 Zrotation Yrotation Xrotation
		JOINT Spine
		{
			OFFSET 0.028270 2.035590 -0.193380
			CHANNELS 3 Zrotation Yrotation Xrotation
			JOINT Spine1
			{
				OFFSET 0.056720 2.048850 -0.042750
				CHANNELS 3 Zrotation Yrotation Xrotation
				JOINT Neck
				{
					OFFSET 0.000000 0.000000 0.000000
					CHANNELS 3 Zrotation Yrotation Xrotation
					JOINT Neck1
					{
						OFFSET -0.054170 1.746240 0.172020
						CHANNELS 3 Zrotation Yrotation Xrotation
						JOINT Head
						{
							OFFSET 0.104070 1.761360 -0.123970
							CHANNELS 3 Zrotation Yrotation Xrotation
							End Site
							{
								OFFSET 0.000000 0.000000 0.000000
							}
						}
					}
				}
				JOINT LeftShoulder
				{
					OFFSET 0.000000 0.000000 0.000000
					CHANNELS 3 Zrotation Yrotation Xrotation
					JOINT LeftArm
					{
						OFFSET 3.362410 1.200890 -0.311210
						CHANNELS 3 Zrotation Yrotation Xrotation
						JOINT LeftForeArm
						{
							OFFSET 4.983000 -0.000000 -0.000000
							CHANNELS 3 Zrotation Yrotation Xrotation
							JOINT LeftHand
							{
								OFFSET 3.483560 -0.000000 -0.000000
								CHANNELS 3 Zrotation Yrotation Xrotation
								JOINT LeftFingerBase
								{
									OFFSET 0.000000 0.000000 0.000000
									CHANNELS 3 Zrotation Yrotation Xrotation
									JOINT LeftHandIndex1
									{
										OFFSET 0.715260 -0.000000 -0.000000
										CHANNELS 3 Zrotation Yrotation Xrotation
										End Site
										{
											OFFSET 0.000000 0.000000 0.000000
										}
									}
								}
								JOINT LThumb
								{
									OFFSET 0.000000 0.000000 0.000000
									CHANNELS 3 Zrotation Yrotation Xrotation
									End Site
									{
										OFFSET 0.000000 0.000000 0.000000
									}
								}
							}
						}
					}
				}
				JOINT RightShoulder
				{
					OFFSET 0.000000 0.000000 0.000000
					CHANNELS 3 Zrotation Yrotation Xrotation
					JOINT RightArm
					{
						OFFSET -3.136600 1.374050 -0.404650
						CHANNELS 3 Zrotation Yrotation Xrotation
						JOINT RightForeArm
						{
							OFFSET -5.241900 -0.000000 -0.000000
							CHANNELS 3 Zrotation Yrotation Xrotation
							JOINT RightHand
							{
								OFFSET -3.444170 -0.000000 -0.000000
								CHANNELS 3 Zrotation Yrotation Xrotation
								JOINT RightFingerBase
								{
									OFFSET 0.000000 0.000000 0.000000
									CHANNELS 3 Zrotation Yrotation Xrotation
									JOINT RightHandIndex1
									{
										OFFSET -0.622530 -0.000000 -0.000000
										CHANNELS 3 Zrotation Yrotation Xrotation
										End Site
										{
											OFFSET 0.000000 0.000000 0.000000
										}
									}
								}
								JOINT RThumb
								{
									OFFSET 0.000000 0.000000 0.000000
									CHANNELS 3 Zrotation Yrotation Xrotation
									End Site
									{
										OFFSET 0.000000 0.000000 0.000000
									}
								}
							}
						}
					}
				}
			}
		}
	}
}
MOTION
Frames: 5
Frame Time: 0.033333
-0.424485 16.410251 -0.424485 -5.955195 3.658835 1.759704 -2.046887 11.018580 1.089248 -11.430271 -4.460725 -9.052417 -5.595964 -13.962787 -35.937681 2.493672 20.057801 43.228223 0.000000 0.000000 0.000000 -1.809465 -0.412762 -20.213051 26.044073 -10.997795 14.830542 5.616475 -5.878841 5.576040 1.193580 7.853562 -32.314485 0.000000 0.000000 0.000000 -2.066028 -3.142720 21.138066 5.090279 -0.303572 -6.899877 5.943581 -1.296873 1.471363 2.118727 -0.506265 -8.241772 1.575576 0.018469 1.306636 0.000000 0.000000 0.000000 11.460721 6.803536 9.863445 -72.187486 -8.268048 7.556731 0.542563 -88.822669 -0.568607 8.817952 -16.835576 -0.308771 9.080411 -16.738002 0.000000 0.000000 0.000000 0.000000 0.000000 0.000000 0.000000 -7.896924 -9.302460 7.595616 66.987557 9.488969 15.901759 23.981103 67.008551 0.289844 -0.084716 10.920989 0.143385 -0.097430 10.924164 0.000000 0.000000 0.000000 0.000000 0.000000 0.000000 0.000000 
-0.393648 16.455351 -0.245828 -5.589838 2.753717 2.185581 -1.852081 11.516090 1.058357 -12.159663 -4.314398 -9.017927 -5.564412 -13.536430 -35.206201 2.048181 19.130204 41.271104 0.000000 0.000000 0.000000 -1.552453 -1.976431 -19.153969 26.340165 -9.314425 13.028287 4.624027 -6.206538 8.781663 0.859602 8.829625 -32.813804 0.000000 0.000000 0.000000 -2.139658 -2.822423 20.424881 4.799428 -0.192037 -6.517326 5.853593 -1.140536 1.394118 2.071646 -0.526299 -8.088703 1.487888 0.009206 1.344161 0.000000 0.000000 0.000000 11.307773 6.865476 9.847789 -72.079296 -8.394415 7.169877 1.183360 -88.976359 -0.601034 9.068271 -16.827084 -0.325792 9.337593 -16.724445 0.000000 0.000000 0.000000 0.000000 0.000000 0.000000 0.000000 -7.776804 -9.155940 7.546472 66.928463 9.384864 16.411662 23.265821 68.351079 0.302731 -0.163753 11.138210 0.149704 -0.177311 11.141420 0.000000 0.000000 0.000000 0.000000 0.000000 0.000000 0.000000 
-0.360605 16.502271 -0.067718 -5.206780 1.878485 2.637628 -1.686842 11.992847 0.992694 -12.902578 -4.192307 -9.012609 -5.539680 -13.091268 -34.368032 1.631644 18.161387 39.216963 0.000000 0.000000 0.000000 -1.249403 -3.473245 -18.004777 26.532865 -7.535877 11.128716 3.575237 -6.473742 11.901317 0.563058 9.678406 -33.178131 0.000000 0.000000 0.000000 -2.213420 -2.513627 19.677256 4.490171 -0.089683 -6.126119 5.768219 -0.993569 1.306277 2.023034 -0.545286 -7.935813 1.401443 0.000060 1.382876 0.000000 0.000000 0.000000 11.158150 6.918200 9.830369 -71.968670 -8.524460 6.781226 1.819418 -89.126900 -0.633560 9.315674 -16.813808 -0.342865 9.591731 -16.706063 0.000000 0.000000 0.000000 0.000000 0.000000 0.000000 0.000000 -7.653359 -9.017725 7.488280 66.872249 9.282461 16.899015 22.507471 69.666460 0.314995 -0.251404 11.348904 0.155704 -0.265918 11.352118 0.000000 0.000000 0.000000 0.000000 0.000000 0.000000 0.000000 
-0.325411 16.550562 0.109448 -4.809905 1.046204 3.109864 -1.550663 12.447440 0.893568 -13.654427 -4.098541 -9.037659 -5.526646 -12.627942 -33.421224 1.248284 17.156576 37.075649 0.000000 0.000000 0.000000 -0.911985 -4.885997 -16.778242 26.607460 -5.691037 9.153009 2.510040 -6.676138 14.894660 0.307751 10.399008 -33.407136 0.000000 0.000000 0.000000 -2.281394 -2.220962 18.900888 4.162645 0.000515 -5.725670 5.687504 -0.859100 1.207322 1.973031 -0.563213 -7.783453 1.316299 -0.008973 1.422857 0.000000 0.000000 0.000000 11.012142 6.960245 9.811018 -71.855636 -8.658711 6.390979 2.450844 -89.274244 -0.666177 9.560065 -16.795759 -0.359985 9.842721 -16.682879 0.000000 0.000000 0.000000 0.000000 0.000000 0.000000 0.000000 -7.527037 -8.889572 7.420817 66.819361 9.181914 17.361423 21.709854 70.953179 0.326575 -0.347533 11.552597 0.161354 -0.363119 11.555778 0.000000 0.000000 0.000000 0.000000 0.000000 0.000000 0.000000 
-0.288636 16.599817 0.285313 -4.402904 0.268066 3.595215 -1.442927 12.879770 0.764260 -14.409930 -4.036622 -9.094357 -5.524923 -12.146969 -32.365933 0.900694 16.121118 34.860372 0.000000 0.000000 0.000000 -0.551514 -6.201255 -15.490810 26.550253 -3.814089 7.124222 1.471872 -6.817771 17.727920 0.094817 10.994391 -33.502395 0.000000 0.000000 0.000000 -2.338091 -1.948099 18.102680 3.816991 0.076078 -5.314949 5.611516 -0.739782 1.096858 1.921793 -0.580063 -7.631917 1.232542 -0.017891 1.464150 0.000000 0.000000 0.000000 10.870034 6.990366 9.789572 -71.740232 -8.797628 5.999290 3.077727 -89.418342 -0.698877 9.801352 -16.772960 -0.377147 10.090464 -16.654920 0.000000 0.000000 0.000000 0.000000 0.000000 0.000000 0.000000 -7.398295 -8.772940 7.343912 66.770279 9.083456 17.796846 20.876897 72.210107 0.337421 -0.451928 11.748862 0.166628 -0.468706 11.751968 0.000000 0.000000 0.000000 0.000000 0.000000 0.000000 0.000000 
